REM DIRINDEX 1\2\4,1\2\5,1\3\6,1\3\7,1\3\8
REM DIRNAME cjc094,folder01,folder02,folder03,folder04,folder05,folder06,folder07
TITLE ""
FILE "LV4_077_WORDS.mp3" MP3
  TRACK 01 AUDIO
    TITLE "0:"
    INDEX 01 00:00:00
  TRACK 02 AUDIO
    TITLE "6:cjc094_2699"
    INDEX 01 00:00:03
  TRACK 03 AUDIO
    TITLE "0:"
    INDEX 01 00:02:02
  TRACK 04 AUDIO
    TITLE "7:cjc094_2700"
    INDEX 01 00:02:63
  TRACK 05 AUDIO
    TITLE "0:"
    INDEX 01 00:03:70
  TRACK 06 AUDIO
    TITLE "8:cjc094_2701"
    INDEX 01 00:04:07
  TRACK 07 AUDIO
    TITLE "0:"
    INDEX 01 00:05:54
  TRACK 08 AUDIO
    TITLE "7:cjc094_2702"
    INDEX 01 00:06:37
  TRACK 09 AUDIO
    TITLE "0:"
    INDEX 01 00:07:45
  TRACK 10 AUDIO
    TITLE "8:cjc094_2703"
    INDEX 01 00:07:62
  TRACK 11 AUDIO
    TITLE "0:"
    INDEX 01 00:09:02
  TRACK 12 AUDIO
    TITLE "7:cjc094_2704"
    INDEX 01 00:09:49
  TRACK 13 AUDIO
    TITLE "0:"
    INDEX 01 00:10:63
  TRACK 14 AUDIO
    TITLE "8:cjc094_2705"
    INDEX 01 00:11:09
  TRACK 15 AUDIO
    TITLE "0:"
    INDEX 01 00:12:40
  TRACK 16 AUDIO
    TITLE "7:cjc094_2706"
    INDEX 01 00:13:12
  TRACK 17 AUDIO
    TITLE "0:"
    INDEX 01 00:14:07
  TRACK 18 AUDIO
    TITLE "8:cjc094_2707"
    INDEX 01 00:14:21
  TRACK 19 AUDIO
    TITLE "0:"
    INDEX 01 00:15:17
  TRACK 20 AUDIO
    TITLE "7:cjc094_2708"
    INDEX 01 00:15:70
  TRACK 21 AUDIO
    TITLE "0:"
    INDEX 01 00:16:65
  TRACK 22 AUDIO
    TITLE "8:cjc094_2709"
    INDEX 01 00:17:04
  TRACK 23 AUDIO
    TITLE "0:"
    INDEX 01 00:21:17
  TRACK 24 AUDIO
    TITLE "7:cjc094_2710"
    INDEX 01 00:21:57
  TRACK 25 AUDIO
    TITLE "0:"
    INDEX 01 00:22:52
  TRACK 26 AUDIO
    TITLE "8:cjc094_2711"
    INDEX 01 00:22:68
  TRACK 27 AUDIO
    TITLE "0:"
    INDEX 01 00:24:02
  TRACK 28 AUDIO
    TITLE "7:cjc094_2712"
    INDEX 01 00:24:53
  TRACK 29 AUDIO
    TITLE "0:"
    INDEX 01 00:25:64
  TRACK 30 AUDIO
    TITLE "8:cjc094_2713"
    INDEX 01 00:26:05
  TRACK 31 AUDIO
    TITLE "0:"
    INDEX 01 00:28:00
  TRACK 32 AUDIO
    TITLE "7:cjc094_2714"
    INDEX 01 00:28:51
  TRACK 33 AUDIO
    TITLE "0:"
    INDEX 01 00:29:60
  TRACK 34 AUDIO
    TITLE "8:cjc094_2715"
    INDEX 01 00:30:03
  TRACK 35 AUDIO
    TITLE "0:"
    INDEX 01 00:32:35
  TRACK 36 AUDIO
    TITLE "7:cjc094_2716"
    INDEX 01 00:33:11
  TRACK 37 AUDIO
    TITLE "0:"
    INDEX 01 00:34:14
  TRACK 38 AUDIO
    TITLE "8:cjc094_2717"
    INDEX 01 00:34:30
  TRACK 39 AUDIO
    TITLE "0:"
    INDEX 01 00:36:17
  TRACK 40 AUDIO
    TITLE "7:cjc094_2718"
    INDEX 01 00:36:66
  TRACK 41 AUDIO
    TITLE "0:"
    INDEX 01 00:38:06
  TRACK 42 AUDIO
    TITLE "8:cjc094_2719"
    INDEX 01 00:38:20
  TRACK 43 AUDIO
    TITLE "0:"
    INDEX 01 00:39:41
  TRACK 44 AUDIO
    TITLE "7:cjc094_2720"
    INDEX 01 00:40:15
  TRACK 45 AUDIO
    TITLE "0:"
    INDEX 01 00:41:71
  TRACK 46 AUDIO
    TITLE "8:cjc094_2721"
    INDEX 01 00:42:08
  TRACK 47 AUDIO
    TITLE "0:"
    INDEX 01 00:44:38
  TRACK 48 AUDIO
    TITLE "7:cjc094_2722"
    INDEX 01 00:45:10
  TRACK 49 AUDIO
    TITLE "0:"
    INDEX 01 00:46:56
  TRACK 50 AUDIO
    TITLE "8:cjc094_2723"
    INDEX 01 00:46:72
  TRACK 51 AUDIO
    TITLE "0:"
    INDEX 01 00:48:34
  TRACK 52 AUDIO
    TITLE "7:cjc094_2724"
    INDEX 01 00:48:73
  TRACK 53 AUDIO
    TITLE "0:"
    INDEX 01 00:50:07
  TRACK 54 AUDIO
    TITLE "8:cjc094_2725"
    INDEX 01 00:50:27
  TRACK 55 AUDIO
    TITLE "0:"
    INDEX 01 00:51:67
  TRACK 56 AUDIO
    TITLE "7:cjc094_2726"
    INDEX 01 00:52:36
  TRACK 57 AUDIO
    TITLE "0:"
    INDEX 01 00:53:47
  TRACK 58 AUDIO
    TITLE "8:cjc094_2727"
    INDEX 01 00:53:64
  TRACK 59 AUDIO
    TITLE "0:"
    INDEX 01 00:57:07
  TRACK 60 AUDIO
    TITLE "7:cjc094_2728"
    INDEX 01 00:57:54
  TRACK 61 AUDIO
    TITLE "0:"
    INDEX 01 00:58:56
  TRACK 62 AUDIO
    TITLE "8:cjc094_2729"
    INDEX 01 00:59:02
  TRACK 63 AUDIO
    TITLE "0:"
    INDEX 01 01:00:15
  TRACK 64 AUDIO
    TITLE "7:cjc094_2730"
    INDEX 01 01:00:68
  TRACK 65 AUDIO
    TITLE "0:"
    INDEX 01 01:02:06
  TRACK 66 AUDIO
    TITLE "8:cjc094_2731"
    INDEX 01 01:02:18
  TRACK 67 AUDIO
    TITLE "0:"
    INDEX 01 01:03:33
  TRACK 68 AUDIO
    TITLE "7:cjc094_2732"
    INDEX 01 01:04:00
  TRACK 69 AUDIO
    TITLE "0:"
    INDEX 01 01:05:09
  TRACK 70 AUDIO
    TITLE "8:cjc094_2733"
    INDEX 01 01:05:24
  TRACK 71 AUDIO
    TITLE "0:"
    INDEX 01 01:06:18
  TRACK 72 AUDIO
    TITLE "7:cjc094_2734"
    INDEX 01 01:06:67
  TRACK 73 AUDIO
    TITLE "0:"
    INDEX 01 01:08:07
  TRACK 74 AUDIO
    TITLE "8:cjc094_2735"
    INDEX 01 01:08:21
  TRACK 75 AUDIO
    TITLE "0:"
    INDEX 01 01:09:48
  TRACK 76 AUDIO
    TITLE "7:cjc094_2736"
    INDEX 01 01:10:20
  TRACK 77 AUDIO
    TITLE "0:"
    INDEX 01 01:11:33
  TRACK 78 AUDIO
    TITLE "8:cjc094_2737"
    INDEX 01 01:11:54
  TRACK 79 AUDIO
    TITLE "0:"
    INDEX 01 01:12:64
  TRACK 80 AUDIO
    TITLE "7:cjc094_2738"
    INDEX 01 01:13:40
  TRACK 81 AUDIO
    TITLE "0:"
    INDEX 01 01:14:51
  TRACK 82 AUDIO
    TITLE "8:cjc094_2739"
    INDEX 01 01:14:59
  TRACK 83 AUDIO
    TITLE "0:"
    INDEX 01 01:15:64
